<svg width="27" height="24" viewBox="0 0 27 24" fill="none" xmlns="http://www.w3.org/2000/svg">
<path d="M22.7065 2.67383L14.5298 8.24068L16.0419 4.95631L22.7065 2.67383Z" fill="#E2761B" stroke="#E2761B" stroke-linecap="round" stroke-linejoin="round"/>
<path d="M3.83032 2.67383L11.9413 8.29341L10.5032 4.95631L3.83032 2.67383Z" fill="#E4761B" stroke="#E4761B" stroke-linecap="round" stroke-linejoin="round"/>
<path d="M19.7646 15.5781L17.5869 18.6365L22.2464 19.8116L23.5859 15.6459L19.7646 15.5781Z" fill="#E4761B" stroke="#E4761B" stroke-linecap="round" stroke-linejoin="round"/>
<path d="M2.96753 15.6459L4.29881 19.8116L8.95829 18.6365L6.78058 15.5781L2.96753 15.6459Z" fill="#E4761B" stroke="#E4761B" stroke-linecap="round" stroke-linejoin="round"/>
<path d="M8.69538 10.4105L7.39697 12.2109L12.0236 12.3992L11.8592 7.8418L8.69538 10.4105Z" fill="#E4761B" stroke="#E4761B" stroke-linecap="round" stroke-linejoin="round"/>
<path d="M17.8415 10.4105L14.6366 7.78906L14.5298 12.3992L19.1482 12.2109L17.8415 10.4105Z" fill="#E4761B" stroke="#E4761B" stroke-linecap="round" stroke-linejoin="round"/>
<path d="M8.95825 18.6362L11.7359 17.3933L9.33627 15.6758L8.95825 18.6362Z" fill="#E4761B" stroke="#E4761B" stroke-linecap="round" stroke-linejoin="round"/>
<path d="M14.801 17.3933L17.5869 18.6362L17.2006 15.6758L14.801 17.3933Z" fill="#E4761B" stroke="#E4761B" stroke-linecap="round" stroke-linejoin="round"/>
<path d="M17.5869 18.6365L14.801 17.3936L15.0229 19.0583L14.9983 19.7589L17.5869 18.6365Z" fill="#D7C1B3" stroke="#D7C1B3" stroke-linecap="round" stroke-linejoin="round"/>
<path d="M8.95825 18.6365L11.5469 19.7589L11.5304 19.0583L11.7359 17.3936L8.95825 18.6365Z" fill="#D7C1B3" stroke="#D7C1B3" stroke-linecap="round" stroke-linejoin="round"/>
<path d="M11.5879 14.5764L9.27051 13.9511L10.9059 13.2656L11.5879 14.5764Z" fill="#233447" stroke="#233447" stroke-linecap="round" stroke-linejoin="round"/>
<path d="M14.949 14.5764L15.631 13.2656L17.2746 13.9511L14.949 14.5764Z" fill="#233447" stroke="#233447" stroke-linecap="round" stroke-linejoin="round"/>
<path d="M8.95823 18.6365L9.35268 15.5781L6.78052 15.6459L8.95823 18.6365Z" fill="#CD6116" stroke="#CD6116" stroke-linecap="round" stroke-linejoin="round"/>
<path d="M17.1924 15.5781L17.5868 18.6365L19.7646 15.6459L17.1924 15.5781Z" fill="#CD6116" stroke="#CD6116" stroke-linecap="round" stroke-linejoin="round"/>
<path d="M19.1482 12.2109L14.5298 12.3993L14.9571 14.5763L15.6392 13.2656L17.2827 13.951L19.1482 12.2109Z" fill="#CD6116" stroke="#CD6116" stroke-linecap="round" stroke-linejoin="round"/>
<path d="M9.27062 13.951L10.9142 13.2656L11.588 14.5763L12.0236 12.3993L7.39697 12.2109L9.27062 13.951Z" fill="#CD6116" stroke="#CD6116" stroke-linecap="round" stroke-linejoin="round"/>
<path d="M7.39673 12.2109L9.33612 15.6761L9.27038 13.951L7.39673 12.2109Z" fill="#E4751F" stroke="#E4751F" stroke-linecap="round" stroke-linejoin="round"/>
<path d="M17.2826 13.951L17.2004 15.6761L19.1481 12.2109L17.2826 13.951Z" fill="#E4751F" stroke="#E4751F" stroke-linecap="round" stroke-linejoin="round"/>
<path d="M12.0234 12.3994L11.5879 14.5764L12.1303 17.1452L12.2535 13.7629L12.0234 12.3994Z" fill="#E4751F" stroke="#E4751F" stroke-linecap="round" stroke-linejoin="round"/>
<path d="M14.5297 12.3994L14.3079 13.7553L14.4065 17.1452L14.9571 14.5764L14.5297 12.3994Z" fill="#E4751F" stroke="#E4751F" stroke-linecap="round" stroke-linejoin="round"/>
<path d="M14.9573 14.5764L14.4067 17.1451L14.8012 17.3937L17.2008 15.6762L17.283 13.9512L14.9573 14.5764Z" fill="#F6851B" stroke="#F6851B" stroke-linecap="round" stroke-linejoin="round"/>
<path d="M9.27051 13.9512L9.33625 15.6762L11.7358 17.3937L12.1303 17.1451L11.5879 14.5764L9.27051 13.9512Z" fill="#F6851B" stroke="#F6851B" stroke-linecap="round" stroke-linejoin="round"/>
<path d="M14.9983 19.7591L15.023 19.0586L14.8175 18.8928H11.7194L11.5304 19.0586L11.5468 19.7591L8.95825 18.6367L9.8622 19.3147L11.6948 20.4823H14.8422L16.6829 19.3147L17.5869 18.6367L14.9983 19.7591Z" fill="#C0AD9E" stroke="#C0AD9E" stroke-linecap="round" stroke-linejoin="round"/>
<path d="M14.8012 17.3931L14.4067 17.1445H12.1304L11.736 17.3931L11.5305 19.0579L11.7195 18.8922H14.8176L15.0231 19.0579L14.8012 17.3931Z" fill="#161616" stroke="#161616" stroke-linecap="round" stroke-linejoin="round"/>
<path d="M23.0517 8.60226L23.7502 5.52882L22.7065 2.67383L14.801 8.05236L17.8416 10.4102L22.1395 11.5627L23.0928 10.5458L22.6819 10.2746L23.3393 9.72468L22.8298 9.36309L23.4872 8.90358L23.0517 8.60226Z" fill="#763D16" stroke="#763D16" stroke-linecap="round" stroke-linejoin="round"/>
<path d="M2.79492 5.52882L3.49343 8.60226L3.04967 8.90358L3.70709 9.36309L3.20581 9.72468L3.86323 10.2746L3.45234 10.5458L4.39739 11.5627L8.69528 10.4102L11.7359 8.05236L3.83036 2.67383L2.79492 5.52882Z" fill="#763D16" stroke="#763D16" stroke-linecap="round" stroke-linejoin="round"/>
<path d="M22.1396 11.5627L17.8417 10.4102L19.1483 12.2105L17.2007 15.6757L19.7646 15.6456H23.5859L22.1396 11.5627Z" fill="#F6851B" stroke="#F6851B" stroke-linecap="round" stroke-linejoin="round"/>
<path d="M8.69531 10.4102L4.39742 11.5627L2.96753 15.6456H6.78057L9.33629 15.6757L7.3969 12.2105L8.69531 10.4102Z" fill="#F6851B" stroke="#F6851B" stroke-linecap="round" stroke-linejoin="round"/>
<path d="M14.5299 12.3996L14.8011 8.05308L16.0502 4.95703H10.5032L11.7358 8.05308L12.0235 12.3996L12.1221 13.7706L12.1303 17.1454H14.4066L14.4231 13.7706L14.5299 12.3996Z" fill="#F6851B" stroke="#F6851B" stroke-linecap="round" stroke-linejoin="round"/>
</svg>
