<svg width="16" height="18" viewBox="0 0 16 18" fill="none" xmlns="http://www.w3.org/2000/svg">
<path d="M13.6013 12.7446C13.063 12.6866 12.5205 12.8047 12.0528 13.0817C11.8986 13.176 11.7226 13.2272 11.5426 13.2301C11.3626 13.2329 11.1851 13.1874 11.0281 13.098L5.81538 10.0132C5.66011 9.92055 5.53241 9.78693 5.44583 9.62649C5.35925 9.46606 5.31702 9.28479 5.32362 9.10193V9.03684C5.3238 8.83191 5.37666 8.63059 5.47696 8.45282C5.57726 8.27504 5.72152 8.12698 5.89544 8.0233L10.9069 5.05476C11.0695 4.95768 11.2546 4.9065 11.4432 4.9065C11.6318 4.9065 11.817 4.95768 11.9796 5.05476C12.3549 5.28116 12.7792 5.41025 13.2152 5.43064C13.6511 5.45103 14.0853 5.3621 14.4795 5.17168C14.8736 4.98126 15.2156 4.69521 15.4753 4.33875C15.735 3.98228 15.9044 3.56636 15.9686 3.12764C16.0252 2.75579 16.0051 2.37604 15.9095 2.01252C15.814 1.649 15.645 1.30966 15.4135 1.01607C15.1819 0.722481 14.8928 0.481059 14.5645 0.307148C14.2361 0.133237 13.8758 0.0306412 13.5064 0.00588035C13.137 -0.0188805 12.7665 0.0347353 12.4186 0.16332C12.0706 0.291905 11.7528 0.492647 11.4853 0.752788C11.2178 1.01293 11.0065 1.32678 10.8648 1.6744C10.7231 2.02201 10.6541 2.39579 10.6621 2.77197C10.6621 2.96347 10.6127 3.15162 10.5188 3.31764C10.4249 3.48366 10.2897 3.62174 10.1269 3.7181L5.07888 6.70291C4.91627 6.79999 4.7311 6.85117 4.54251 6.85117C4.35393 6.85117 4.16876 6.79999 4.00615 6.70291C3.51662 6.40496 2.94503 6.27686 2.37761 6.33795C1.70013 6.41363 1.0768 6.74984 0.635401 7.27764C0.194004 7.80543 -0.0320199 8.48484 0.00366392 9.17658C0.0393477 9.86831 0.334036 10.52 0.827317 10.998C1.3206 11.476 1.9751 11.7441 2.65665 11.7474C3.12921 11.7479 3.59312 11.6186 3.99929 11.3731C4.15415 11.2751 4.33216 11.2215 4.51452 11.2178C4.69689 11.2141 4.87685 11.2605 5.03542 11.3522L10.2413 14.4486C10.3958 14.5436 10.523 14.6782 10.6101 14.839C10.6972 14.9997 10.7412 15.181 10.7376 15.3645C10.7382 15.8744 10.8841 16.3732 11.1577 16.8006C11.4314 17.228 11.821 17.5656 12.2795 17.7727C12.738 17.9797 13.2457 18.0473 13.7412 17.9673C14.2367 17.8872 14.6988 17.663 15.0715 17.3216C15.4443 16.9803 15.7117 16.5365 15.8414 16.0439C15.9712 15.5513 15.9577 15.0311 15.8026 14.5461C15.6476 14.0612 15.3576 13.6323 14.9677 13.3113C14.5778 12.9904 14.1048 12.7911 13.6059 12.7376L13.6013 12.7446Z" fill="#E5E5E5"/>
</svg>
