<svg width="165" height="42" viewBox="0 0 165 42" fill="none" xmlns="http://www.w3.org/2000/svg">
<path d="M21 0C18.2422 -3.2886e-08 15.5115 0.543181 12.9636 1.59853C10.4158 2.65388 8.10079 4.20073 6.15076 6.15076C4.20073 8.10079 2.65388 10.4158 1.59853 12.9636C0.543181 15.5115 -8.76595e-08 18.2422 0 21C8.76596e-08 23.7578 0.543181 26.4885 1.59853 29.0364C2.65388 31.5842 4.20073 33.8992 6.15076 35.8492C8.10079 37.7993 10.4158 39.3461 12.9636 40.4015C15.5115 41.4568 18.2422 42 21 42L21 21V0Z" fill="#0075FF"/>
<path d="M24.2 4.95911e-05L25.6 5.14372e-05C34.8784 6.24757e-05 42.4 7.52167 42.4 16.8L24.2 4.95911e-05Z" fill="#FE02B9"/>
<path d="M24.2 27.0148H42.4V42H24.2V27.0148Z" fill="#7E3BDC"/>
<path d="M42.4 27.0148C42.4 31.8831 38.3257 35.8296 33.3 35.8296C28.2742 35.8296 24.2 31.8831 24.2 27.0148C24.2 22.1465 28.2742 18.2 33.3 18.2C38.3257 18.2 42.4 22.1465 42.4 27.0148Z" fill="#7E3BDC"/>
<path d="M68.77 19.168C68.546 18.7573 68.238 18.4447 67.846 18.23C67.454 18.0153 66.9967 17.908 66.474 17.908C65.8953 17.908 65.382 18.0387 64.934 18.3C64.486 18.5613 64.136 18.9347 63.884 19.42C63.632 19.9053 63.506 20.4653 63.506 21.1C63.506 21.7533 63.632 22.3227 63.884 22.808C64.1453 23.2933 64.5047 23.6667 64.962 23.928C65.4193 24.1893 65.9513 24.32 66.558 24.32C67.3047 24.32 67.916 24.124 68.392 23.732C68.868 23.3307 69.1807 22.7753 69.33 22.066H65.97V20.568H71.262V22.276C71.1313 22.9573 70.8513 23.5873 70.422 24.166C69.9927 24.7447 69.4373 25.2113 68.756 25.566C68.084 25.9113 67.328 26.084 66.488 26.084C65.5453 26.084 64.6913 25.874 63.926 25.454C63.17 25.0247 62.5727 24.432 62.134 23.676C61.7047 22.92 61.49 22.0613 61.49 21.1C61.49 20.1387 61.7047 19.28 62.134 18.524C62.5727 17.7587 63.17 17.166 63.926 16.746C64.6913 16.3167 65.5407 16.102 66.474 16.102C67.5753 16.102 68.532 16.3727 69.344 16.914C70.156 17.446 70.716 18.1973 71.024 19.168H68.77ZM84.3041 24.138H80.4121L79.7681 26H77.7101L81.2241 16.214H83.5061L87.0201 26H84.9481L84.3041 24.138ZM83.7721 22.57L82.3581 18.482L80.9441 22.57H83.7721ZM100.584 16.228V17.81H97.9796V26H96.0196V17.81H93.4156V16.228H100.584ZM109.574 17.81V20.26H112.864V21.814H109.574V24.404H113.284V26H107.614V16.214H113.284V17.81H109.574ZM133.727 16.228L130.997 26H128.687L126.853 19.042L124.935 26L122.639 26.014L120.007 16.228H122.107L123.829 23.816L125.817 16.228H128.001L129.877 23.774L131.613 16.228H133.727ZM146.599 24.138H142.707L142.063 26H140.005L143.519 16.214H145.801L149.315 26H147.243L146.599 24.138ZM146.067 22.57L144.653 18.482L143.239 22.57H146.067ZM163.998 16.228L160.694 22.598V26H158.734V22.598L155.416 16.228H157.628L159.728 20.694L161.814 16.228H163.998Z" fill="#E5E5E5"/>
</svg>
