<svg width="20" height="20" viewBox="0 0 20 20" fill="none" xmlns="http://www.w3.org/2000/svg">
<path d="M16.3347 16.3346C12.8199 19.8493 7.12146 19.8493 3.60674 16.3346C0.0920235 12.8198 0.0920235 7.12136 3.60674 3.60664C7.12146 0.091918 12.8199 0.091918 16.3347 3.60664C19.8494 7.12136 19.8494 12.8198 16.3347 16.3346Z" fill="#7E3BDC"/>
<path d="M12.092 7.84928L9.9707 9.9706M9.9707 9.9706L7.84938 12.0919M9.9707 9.9706L12.092 12.0919M9.9707 9.9706L7.84938 7.84928M16.3347 16.3346C12.8199 19.8493 7.12146 19.8493 3.60674 16.3346C0.0920235 12.8198 0.0920235 7.12136 3.60674 3.60664C7.12146 0.091918 12.8199 0.091918 16.3347 3.60664C19.8494 7.12136 19.8494 12.8198 16.3347 16.3346Z" stroke="white" stroke-linecap="round" stroke-linejoin="round"/>
</svg>
