<svg width="16" height="11" viewBox="0 0 16 11" fill="none" xmlns="http://www.w3.org/2000/svg">
<path d="M0 5.41432C0.00853334 5.56983 0.0659202 5.69207 0.141654 5.76899L4.94166 10.6699C5.16254 10.8844 5.49294 10.8758 5.69585 10.69C5.89873 10.5043 5.90865 10.1568 5.71665 9.96054L1.77496 5.93019H15.4667C15.7612 5.93019 16 5.69923 16 5.4143C16 5.12938 15.7612 4.89842 15.4667 4.89842H1.77496L5.71665 0.868063C5.90862 0.671794 5.89195 0.330932 5.69585 0.138584C5.49294 -0.0603926 5.13366 -0.0375381 4.94166 0.158705L0.141654 5.0596C0.0150401 5.18483 0.00826668 5.29128 0 5.41427V5.41432Z" fill="white"/>
</svg>
