<svg width="16" height="20" viewBox="0 0 16 20" fill="none" xmlns="http://www.w3.org/2000/svg">
<path d="M0.592593 5.03704H15.4074C15.7333 5.03704 16 4.77037 16 4.44444V2.66667C16 2.34074 15.7333 2.07407 15.4074 2.07407H11.5556V0.592593C11.5556 0.266667 11.2889 0 10.963 0H5.03704C4.71111 0 4.44444 0.266667 4.44444 0.592593V2.07407H0.592593C0.266667 2.07407 0 2.34074 0 2.66667V4.44444C0 4.77037 0.266667 5.03704 0.592593 5.03704Z" fill="white"/>
<path d="M1.77765 5.62964C1.45173 5.62964 1.18506 5.89631 1.18506 6.22223V19.2593C1.18506 19.5852 1.45173 19.8519 1.77765 19.8519H14.2221C14.548 19.8519 14.8147 19.5852 14.8147 19.2593V6.22223C14.8147 5.89631 14.548 5.62964 14.2221 5.62964H1.77765ZM5.03691 15.4074C5.03691 15.7333 4.77024 16 4.44432 16C4.11839 16 3.85173 15.7333 3.85173 15.4074V10.6667C3.85173 10.3407 4.11839 10.0741 4.44432 10.0741C4.77024 10.0741 5.03691 10.3407 5.03691 10.6667V15.4074ZM8.59247 16.2963C8.59247 16.6222 8.3258 16.8889 7.99987 16.8889C7.67395 16.8889 7.40728 16.6222 7.40728 16.2963V9.18519C7.40728 8.85927 7.67395 8.5926 7.99987 8.5926C8.3258 8.5926 8.59247 8.85927 8.59247 9.18519V16.2963ZM12.148 15.4074C12.148 15.7333 11.8814 16 11.5554 16C11.2295 16 10.9628 15.7333 10.9628 15.4074V10.6667C10.9628 10.3407 11.2295 10.0741 11.5554 10.0741C11.8814 10.0741 12.148 10.3407 12.148 10.6667V15.4074Z" fill="white"/>
</svg>
