<svg width="42" height="42" viewBox="0 0 42 42" fill="none" xmlns="http://www.w3.org/2000/svg">
<path d="M28 6C24.691 6 22 8.691 22 12C22 15.309 24.691 18 28 18C31.309 18 34 15.309 34 12C34 8.691 31.309 6 28 6ZM28 16C25.795 16 24 14.206 24 12C24 9.794 25.795 8 28 8C30.205 8 32 9.794 32 12C32 14.206 30.205 16 28 16ZM39 0H3C1.346 0 0 1.346 0 3V39C0 40.654 1.346 42 3 42H39C40.654 42 42 40.654 42 39V3C42 1.346 40.654 0 39 0ZM3 40C2.449 40 2 39.552 2 39V29.676L12 17.571L30.528 40H3ZM40 39C40 39.552 39.551 40 39 40H33.123L26.188 31.605L32 24.57L40 34.254V39ZM40 31.113L32.771 22.363C32.39 21.902 31.609 21.902 31.228 22.363L24.89 30.035L12.771 15.363C12.39 14.902 11.609 14.902 11.228 15.363L2 26.535V3C2 2.448 2.449 2 3 2H39C39.551 2 40 2.448 40 3V31.113Z" fill="#453852"/>
</svg>
