<svg width="13" height="13" viewBox="0 0 13 13" fill="none" xmlns="http://www.w3.org/2000/svg">
<path d="M7.05875 0.164307H2.97867C1.88929 0.164307 0.998047 1.05048 0.998047 2.13367V6.19055C0.998047 7.27373 1.88929 8.15991 2.97867 8.15991H7.05875C8.14812 8.15991 9.03937 7.27373 9.03937 6.19055V2.13367C9.03937 1.05048 8.14812 0.164307 7.05875 0.164307ZM8.24719 6.19055C8.24719 6.84044 7.71239 7.37224 7.05875 7.37224H2.97867C2.32506 7.37224 1.79022 6.84048 1.79022 6.19055V2.13367C1.79022 1.48378 2.32503 0.951981 2.97867 0.951981H7.05875C7.71235 0.951981 8.24719 1.48374 8.24719 2.13367V6.19055Z" fill="#E5E5E5"/>
<path d="M11.0199 11.3109H6.93985C6.28624 11.3109 5.75141 10.7791 5.75141 10.1292V9.34149H4.95923V10.1292C4.95923 11.2123 5.85047 12.0985 6.93985 12.0985H11.0199C12.1093 12.0985 13.0005 11.2123 13.0005 10.1292V6.07227C13.0005 4.98908 12.1093 4.10291 11.0199 4.10291H10.2278V4.89058H11.0199C11.6735 4.89058 12.2084 5.42234 12.2084 6.07227V10.1292C12.2084 10.7791 11.6736 11.3109 11.0199 11.3109V11.3109Z" fill="#E5E5E5"/>
</svg>
