<svg width="16" height="13" viewBox="0 0 16 13" fill="none" xmlns="http://www.w3.org/2000/svg">
<path d="M13.5447 1.08928C12.5249 0.62736 11.4313 0.287041 10.2879 0.0921262C10.2671 0.0883644 10.2463 0.0977654 10.2356 0.116568C10.0949 0.363501 9.93915 0.685645 9.83006 0.938849C8.60027 0.757099 7.37679 0.757099 6.17221 0.938849C6.0631 0.680017 5.90166 0.363501 5.76038 0.116568C5.74966 0.0983927 5.72886 0.0889918 5.70803 0.0921262C4.56527 0.286418 3.47171 0.626737 2.45129 1.08928C2.44246 1.09304 2.43488 1.09931 2.42986 1.10745C0.355594 4.16659 -0.212633 7.15053 0.0661201 10.0975C0.0673814 10.1119 0.0755799 10.1257 0.086932 10.1345C1.45547 11.1266 2.78114 11.7289 4.08219 12.1281C4.10301 12.1344 4.12507 12.1269 4.13832 12.1099C4.44608 11.6951 4.72043 11.2576 4.95565 10.7975C4.96953 10.7706 4.95628 10.7386 4.92791 10.728C4.49275 10.565 4.0784 10.3663 3.67982 10.1407C3.64829 10.1226 3.64577 10.078 3.67477 10.0567C3.75865 9.99468 3.84255 9.93012 3.92264 9.86494C3.93713 9.85304 3.95732 9.85053 3.97435 9.85805C6.59286 11.0382 9.4277 11.0382 12.0153 9.85805C12.0323 9.8499 12.0525 9.85242 12.0677 9.86432C12.1478 9.9295 12.2316 9.99468 12.3161 10.0567C12.3451 10.078 12.3433 10.1226 12.3117 10.1407C11.9131 10.3707 11.4988 10.565 11.063 10.7274C11.0346 10.738 11.022 10.7706 11.0359 10.7975C11.2762 11.2569 11.5505 11.6944 11.8526 12.1093C11.8652 12.1269 11.8879 12.1344 11.9087 12.1281C13.2161 11.7289 14.5417 11.1266 15.9103 10.1345C15.9223 10.1257 15.9298 10.1125 15.9311 10.0981C16.2647 6.69111 15.3723 3.73163 13.5655 1.10807C13.5611 1.09931 13.5535 1.09304 13.5447 1.08928ZM5.34668 8.30309C4.55833 8.30309 3.90876 7.58862 3.90876 6.71117C3.90876 5.83372 4.54574 5.11925 5.34668 5.11925C6.15392 5.11925 6.79721 5.84 6.78459 6.71117C6.78459 7.58862 6.14761 8.30309 5.34668 8.30309ZM10.6632 8.30309C9.87484 8.30309 9.22526 7.58862 9.22526 6.71117C9.22526 5.83372 9.86222 5.11925 10.6632 5.11925C11.4704 5.11925 12.1137 5.84 12.1011 6.71117C12.1011 7.58862 11.4704 8.30309 10.6632 8.30309Z" fill="#E5E5E5"/>
</svg>
