<svg width="18" height="12" viewBox="0 0 18 12" fill="none" xmlns="http://www.w3.org/2000/svg">
<path d="M17.2636 0.648066L8.92042 6.3479H8.918C8.90601 6.35601 8.89355 6.3634 8.88071 6.3703L8.87091 6.37538C8.85735 6.38228 8.84342 6.38858 8.82926 6.39403C8.81437 6.3996 8.79923 6.40432 8.78386 6.40819H8.78011C8.76473 6.41194 8.74924 6.41473 8.73362 6.41667C8.73156 6.41667 8.7295 6.4255 8.72756 6.42587C8.71134 6.4318 8.69476 6.43676 8.67805 6.44076C8.66255 6.43785 8.64706 6.4341 8.63192 6.42962C8.62986 6.42962 8.62781 6.4249 8.62611 6.4249L8.62623 6.42478C8.61074 6.42211 8.59548 6.4186 8.58047 6.41437C8.58047 6.41437 8.57781 6.41267 8.57611 6.41231H8.57599C8.56061 6.40831 8.54548 6.40347 8.53059 6.39766C8.51655 6.39233 8.50287 6.38628 8.48955 6.37938L8.47974 6.37429C8.46788 6.36788 8.45565 6.3611 8.44585 6.35323H8.44379L8.44112 6.35153L0 0.72825V11.5078C0.000121057 11.6379 0.0518164 11.7626 0.143461 11.8548C0.235227 11.947 0.359805 11.9992 0.489834 12H16.866C16.9962 11.9992 17.1208 11.9469 17.2126 11.8545C17.3045 11.762 17.3559 11.637 17.3558 11.5068V0.561768C17.3294 0.594939 17.2983 0.623873 17.2633 0.647843L17.2636 0.648066Z" fill="#E5E5E5"/>
<path d="M8.67453 5.48723L16.7038 0H0.489716C0.473493 0 0.457512 0.00266328 0.441895 0.00411596C0.448674 0.00823207 0.455454 0.0118641 0.462233 0.0163435L8.67453 5.48723Z" fill="#E5E5E5"/>
</svg>
