<svg width="6" height="182" viewBox="0 0 6 182" fill="none" xmlns="http://www.w3.org/2000/svg">
<path d="M2.99999 181.887L5.88674 179L2.99999 176.113L0.113241 179L2.99999 181.887ZM2.5 -2.18557e-08L2.5 0.497222L3.5 0.497222L3.5 2.18557e-08L2.5 -2.18557e-08ZM2.5 1.49167L2.5 2.48611L3.5 2.48611L3.5 1.49167L2.5 1.49167ZM2.5 3.48056L2.5 4.475L3.5 4.475L3.5 3.48056L2.5 3.48056ZM2.5 5.46944L2.5 6.46389L3.5 6.46389L3.5 5.46944L2.5 5.46944ZM2.5 7.45833L2.5 8.45278L3.5 8.45278L3.5 7.45833L2.5 7.45833ZM2.5 9.44722L2.5 10.4417L3.5 10.4417L3.5 9.44722L2.5 9.44722ZM2.5 11.4361L2.5 12.4306L3.5 12.4306L3.5 11.4361L2.5 11.4361ZM2.5 13.425L2.5 14.4194L3.5 14.4194L3.5 13.425L2.5 13.425ZM2.5 15.4139L2.5 16.4083L3.5 16.4083L3.5 15.4139L2.5 15.4139ZM2.5 17.4028L2.5 18.3972L3.5 18.3972L3.5 17.4028L2.5 17.4028ZM2.5 19.3917L2.5 20.3861L3.5 20.3861L3.5 19.3917L2.5 19.3917ZM2.5 21.3806L2.5 22.375L3.5 22.375L3.5 21.3806L2.5 21.3806ZM2.5 23.3694L2.5 24.3639L3.5 24.3639L3.5 23.3694L2.5 23.3694ZM2.5 25.3583L2.5 26.3528L3.5 26.3528L3.5 25.3583L2.5 25.3583ZM2.5 27.3472L2.5 28.3417L3.5 28.3417L3.5 27.3472L2.5 27.3472ZM2.5 29.3361L2.5 30.3306L3.5 30.3306L3.5 29.3361L2.5 29.3361ZM2.5 31.325L2.5 32.3194L3.5 32.3194L3.5 31.325L2.5 31.325ZM2.5 33.3139L2.5 34.3083L3.5 34.3083L3.5 33.3139L2.5 33.3139ZM2.5 35.3028L2.5 36.2972L3.5 36.2972L3.5 35.3028L2.5 35.3028ZM2.5 37.2917L2.5 38.2861L3.5 38.2861L3.5 37.2917L2.5 37.2917ZM2.5 39.2806L2.5 40.275L3.5 40.275L3.5 39.2806L2.5 39.2806ZM2.5 41.2695L2.5 42.2639L3.5 42.2639L3.5 41.2695L2.5 41.2695ZM2.5 43.2583L2.5 44.2528L3.5 44.2528L3.5 43.2583L2.5 43.2583ZM2.5 45.2472L2.5 46.2417L3.5 46.2417L3.5 45.2472L2.5 45.2472ZM2.5 47.2361L2.5 48.2306L3.5 48.2306L3.5 47.2361L2.5 47.2361ZM2.5 49.225L2.5 50.2195L3.5 50.2195L3.5 49.225L2.5 49.225ZM2.5 51.2139L2.5 52.2084L3.5 52.2084L3.5 51.2139L2.5 51.2139ZM2.5 53.2028L2.5 54.1972L3.5 54.1972L3.5 53.2028L2.5 53.2028ZM2.5 55.1917L2.5 56.1861L3.5 56.1861L3.5 55.1917L2.5 55.1917ZM2.5 57.1806L2.5 58.175L3.5 58.175L3.5 57.1806L2.5 57.1806ZM2.5 59.1695L2.5 60.1639L3.5 60.1639L3.5 59.1695L2.5 59.1695ZM2.5 61.1584L2.5 62.1528L3.5 62.1528L3.5 61.1584L2.5 61.1584ZM2.5 63.1473L2.5 64.1417L3.5 64.1417L3.5 63.1473L2.5 63.1473ZM2.5 65.1361L2.5 66.1306L3.5 66.1306L3.5 65.1361L2.5 65.1361ZM2.5 67.125L2.5 68.1195L3.5 68.1195L3.5 67.125L2.5 67.125ZM2.5 69.1139L2.5 70.1084L3.5 70.1084L3.5 69.1139L2.5 69.1139ZM2.5 71.1028L2.5 72.0973L3.5 72.0973L3.5 71.1028L2.5 71.1028ZM2.5 73.0917L2.5 74.0862L3.5 74.0862L3.5 73.0917L2.5 73.0917ZM2.5 75.0806L2.5 76.0751L3.5 76.0751L3.5 75.0806L2.5 75.0806ZM2.5 77.0695L2.5 78.0639L3.5 78.0639L3.5 77.0695L2.5 77.0695ZM2.5 79.0584L2.5 80.0528L3.5 80.0528L3.5 79.0584L2.5 79.0584ZM2.5 81.0473L2.5 82.0417L3.5 82.0417L3.5 81.0473L2.5 81.0473ZM2.5 83.0362L2.5 84.0306L3.5 84.0306L3.5 83.0362L2.5 83.0362ZM2.5 85.0251L2.5 86.0195L3.5 86.0195L3.5 85.0251L2.5 85.0251ZM2.5 87.0139L2.5 88.0084L3.5 88.0084L3.5 87.0139L2.5 87.0139ZM2.5 89.0028L2.5 89.9973L3.5 89.9973L3.5 89.0028L2.5 89.0028ZM2.5 90.9917L2.5 91.9862L3.5 91.9862L3.5 90.9917L2.5 90.9917ZM2.5 92.9806L2.5 93.9751L3.5 93.9751L3.5 92.9806L2.5 92.9806ZM2.5 94.9695L2.5 95.964L3.5 95.964L3.5 94.9695L2.5 94.9695ZM2.5 96.9584L2.5 97.9529L3.5 97.9529L3.5 96.9584L2.5 96.9584ZM2.5 98.9473L2.5 99.9417L3.5 99.9417L3.5 98.9473L2.5 98.9473ZM2.5 100.936L2.5 101.931L3.5 101.931L3.5 100.936L2.5 100.936ZM2.5 102.925L2.5 103.92L3.5 103.92L3.5 102.925L2.5 102.925ZM2.5 104.914L2.5 105.908L3.5 105.908L3.5 104.914L2.5 104.914ZM2.5 106.903L2.5 107.897L3.5 107.897L3.5 106.903L2.5 106.903ZM2.5 108.892L2.5 109.886L3.5 109.886L3.5 108.892L2.5 108.892ZM2.5 110.881L2.5 111.875L3.5 111.875L3.5 110.881L2.5 110.881ZM2.5 112.87L2.5 113.864L3.5 113.864L3.5 112.87L2.5 112.87ZM2.49999 114.858L2.49999 115.853L3.49999 115.853L3.49999 114.858L2.49999 114.858ZM2.49999 116.847L2.49999 117.842L3.49999 117.842L3.49999 116.847L2.49999 116.847ZM2.49999 118.836L2.49999 119.831L3.49999 119.831L3.49999 118.836L2.49999 118.836ZM2.49999 120.825L2.49999 121.82L3.49999 121.82L3.49999 120.825L2.49999 120.825ZM2.49999 122.814L2.49999 123.808L3.49999 123.808L3.49999 122.814L2.49999 122.814ZM2.49999 124.803L2.49999 125.797L3.49999 125.797L3.49999 124.803L2.49999 124.803ZM2.49999 126.792L2.49999 127.786L3.49999 127.786L3.49999 126.792L2.49999 126.792ZM2.49999 128.781L2.49999 129.775L3.49999 129.775L3.49999 128.781L2.49999 128.781ZM2.49999 130.77L2.49999 131.764L3.49999 131.764L3.49999 130.77L2.49999 130.77ZM2.49999 132.758L2.49999 133.753L3.49999 133.753L3.49999 132.758L2.49999 132.758ZM2.49999 134.747L2.49999 135.742L3.49999 135.742L3.49999 134.747L2.49999 134.747ZM2.49999 136.736L2.49999 137.731L3.49999 137.731L3.49999 136.736L2.49999 136.736ZM2.49999 138.725L2.49999 139.72L3.49999 139.72L3.49999 138.725L2.49999 138.725ZM2.49999 140.714L2.49999 141.708L3.49999 141.708L3.49999 140.714L2.49999 140.714ZM2.49999 142.703L2.49999 143.697L3.49999 143.697L3.49999 142.703L2.49999 142.703ZM2.49999 144.692L2.49999 145.686L3.49999 145.686L3.49999 144.692L2.49999 144.692ZM2.49999 146.681L2.49999 147.675L3.49999 147.675L3.49999 146.681L2.49999 146.681ZM2.49999 148.67L2.49999 149.664L3.49999 149.664L3.49999 148.67L2.49999 148.67ZM2.49999 150.658L2.49999 151.653L3.49999 151.653L3.49999 150.658L2.49999 150.658ZM2.49999 152.647L2.49999 153.642L3.49999 153.642L3.49999 152.647L2.49999 152.647ZM2.49999 154.636L2.49999 155.631L3.49999 155.631L3.49999 154.636L2.49999 154.636ZM2.49999 156.625L2.49999 157.62L3.49999 157.62L3.49999 156.625L2.49999 156.625ZM2.49999 158.614L2.49999 159.608L3.49999 159.608L3.49999 158.614L2.49999 158.614ZM2.49999 160.603L2.49999 161.597L3.49999 161.597L3.49999 160.603L2.49999 160.603ZM2.49999 162.592L2.49999 163.586L3.49999 163.586L3.49999 162.592L2.49999 162.592ZM2.49999 164.581L2.49999 165.575L3.49999 165.575L3.49999 164.581L2.49999 164.581ZM2.49999 166.57L2.49999 167.564L3.49999 167.564L3.49999 166.57L2.49999 166.57ZM2.49999 168.559L2.49999 169.553L3.49999 169.553L3.49999 168.559L2.49999 168.559ZM2.49999 170.547L2.49999 171.542L3.49999 171.542L3.49999 170.547L2.49999 170.547ZM2.49999 172.536L2.49999 173.531L3.49999 173.531L3.49999 172.536L2.49999 172.536ZM2.49999 174.525L2.49999 175.52L3.49999 175.52L3.49999 174.525L2.49999 174.525ZM2.49999 176.514L2.49999 177.509L3.49999 177.509L3.49999 176.514L2.49999 176.514ZM2.49999 178.503L2.49999 179L3.49999 179L3.49999 178.503L2.49999 178.503Z" fill="white" fill-opacity="0.2"/>
</svg>
