<svg width="12" height="16" viewBox="0 0 12 16" fill="none" xmlns="http://www.w3.org/2000/svg">
<path d="M1.81622 1.76078C2.38948 1.17895 3.07049 0.723183 3.8183 0.421145C4.56611 0.118986 5.36527 -0.0231339 6.16749 0.00306157C7.71147 0.0615173 9.17551 0.729099 10.2597 1.86901C11.3439 3.00893 11.9662 4.53506 11.9992 6.13495C12.0204 7.49781 11.6016 8.8289 10.8096 9.91747C10.6999 10.0878 7.85893 14.1783 6.91347 15.5356C6.71109 15.8252 6.38747 15.9978 6.04215 16H6.03714H6.03726C5.69409 15.9995 5.37141 15.8306 5.16747 15.5447C4.72786 14.9257 1.30163 10.0753 1.21121 9.9573C1.20596 9.95075 1.20131 9.94432 1.19666 9.93728H1.19654C0.424591 8.86013 0.00528908 7.55561 3.52859e-05 6.21423C-0.00270939 5.38338 0.156832 4.5607 0.469007 3.79536C0.781054 3.03003 1.2394 2.33797 1.81632 1.76073L1.81622 1.76078ZM6.00006 9.07051C6.70898 9.07051 7.3888 8.77886 7.89009 8.25969C8.39138 7.74052 8.673 7.03647 8.673 6.30227C8.673 5.56807 8.39138 4.86402 7.89009 4.34486C7.38879 3.8257 6.70898 3.53404 6.00006 3.53404C5.29113 3.53404 4.61132 3.82569 4.11003 4.34486C3.60874 4.86403 3.32712 5.56807 3.32712 6.30227C3.32795 7.03622 3.60981 7.7398 4.11098 8.25871C4.61202 8.77774 5.29138 9.06966 6.00006 9.07051Z" fill="#E5E5E5"/>
</svg>
