<svg width="15" height="16" viewBox="0 0 15 16" fill="none" xmlns="http://www.w3.org/2000/svg">
<path d="M12.09 11.3285C11.6115 11.277 11.1293 11.382 10.7136 11.6282C10.5765 11.712 10.4201 11.7575 10.2601 11.7601C10.1001 11.7626 9.94233 11.7221 9.80275 11.6426L5.16923 8.90061C5.03121 8.81827 4.9177 8.69949 4.84074 8.55688C4.76378 8.41427 4.72624 8.25315 4.73211 8.0906V8.03275C4.73227 7.85059 4.77926 7.67164 4.86841 7.51361C4.95756 7.35559 5.08579 7.22398 5.24039 7.13182L9.69499 4.49312C9.83953 4.40683 10.0041 4.36133 10.1718 4.36133C10.3394 4.36133 10.504 4.40683 10.6485 4.49312C10.9821 4.69437 11.3593 4.80911 11.7468 4.82724C12.1343 4.84536 12.5203 4.76631 12.8706 4.59705C13.221 4.42779 13.525 4.17352 13.7558 3.85666C13.9867 3.53981 14.1373 3.1701 14.1943 2.78013C14.2446 2.44959 14.2268 2.11204 14.1418 1.78891C14.0568 1.46578 13.9067 1.16414 13.7008 0.903175C13.495 0.642205 13.238 0.427608 12.9462 0.27302C12.6543 0.118433 12.3341 0.0272366 12.0057 0.00522698C11.6773 -0.0167826 11.348 0.0308758 11.0387 0.145174C10.7295 0.259471 10.447 0.437909 10.2092 0.669145C9.97141 0.900382 9.78357 1.17936 9.65759 1.48835C9.53162 1.79734 9.47027 2.12959 9.47745 2.46398C9.47744 2.6342 9.4335 2.80144 9.35002 2.94901C9.26653 3.09658 9.14643 3.21932 9.00169 3.30497L4.51456 5.95815C4.37002 6.04444 4.20542 6.08993 4.03779 6.08993C3.87016 6.08993 3.70556 6.04444 3.56102 5.95815C3.12588 5.6933 2.61781 5.57943 2.11343 5.63373C1.51122 5.70101 0.957153 5.99986 0.564801 6.46901C0.172448 6.93816 -0.0284621 7.54208 0.00325681 8.15696C0.0349757 8.77184 0.296921 9.35109 0.735393 9.77598C1.17387 10.2009 1.75565 10.4392 2.36147 10.4421C2.78152 10.4426 3.19388 10.3276 3.55492 10.1094C3.69258 10.0223 3.85081 9.97466 4.01291 9.97139C4.17501 9.96812 4.33498 10.0094 4.47593 10.0908L9.10335 12.8432C9.2407 12.9276 9.35377 13.0473 9.43121 13.1902C9.50865 13.3331 9.54774 13.4942 9.54454 13.6573C9.54503 14.1106 9.67475 14.554 9.91799 14.9339C10.1612 15.3138 10.5076 15.6139 10.9151 15.798C11.3227 15.982 11.774 16.0421 12.2144 15.9709C12.6549 15.8998 13.0656 15.7004 13.3969 15.397C13.7282 15.0936 13.9659 14.6991 14.0813 14.2612C14.1966 13.8234 14.1846 13.361 14.0468 12.9299C13.909 12.4988 13.6512 12.1176 13.3046 11.8323C12.9581 11.547 12.5376 11.3699 12.0941 11.3223L12.09 11.3285Z" fill="#E5E5E5"/>
</svg>
