<svg width="16" height="14" viewBox="0 0 16 14" fill="none" xmlns="http://www.w3.org/2000/svg">
<path fill-rule="evenodd" clip-rule="evenodd" d="M12.2558 13.186C12.4704 13.338 12.7471 13.376 12.9938 13.2826C13.2404 13.1886 13.4218 12.978 13.4764 12.7226C14.0558 9.99998 15.4611 3.10864 15.9884 0.631977C16.0284 0.44531 15.9618 0.25131 15.8151 0.126643C15.6684 0.00197679 15.4651 -0.0340233 15.2838 0.0333101C12.4884 1.06798 3.87978 4.29798 0.36111 5.59998C0.137777 5.68264 -0.00755638 5.89731 -0.000223045 6.13264C0.00777695 6.36864 0.166444 6.57331 0.39511 6.64198C1.97311 7.11398 4.04444 7.77064 4.04444 7.77064C4.04444 7.77064 5.01244 10.694 5.51711 12.1806C5.58044 12.3673 5.72644 12.514 5.91911 12.5646C6.11111 12.6146 6.31644 12.562 6.45977 12.4266C7.27044 11.6613 8.52378 10.478 8.52378 10.478C8.52378 10.478 10.9051 12.224 12.2558 13.186ZM4.91578 7.40131L6.03511 11.0933L6.28378 8.75531C6.28378 8.75531 10.6084 4.85464 13.0738 2.63131C13.1458 2.56598 13.1558 2.45664 13.0958 2.37998C13.0364 2.30331 12.9271 2.28531 12.8451 2.33731C9.98777 4.16198 4.91578 7.40131 4.91578 7.40131Z" fill="#E5E5E5"/>
</svg>
