<svg width="16" height="14" viewBox="0 0 16 14" fill="none" xmlns="http://www.w3.org/2000/svg">
<path d="M16 2.03799C15.4113 2.29932 14.7787 2.47532 14.1147 2.55466C14.7927 2.14866 15.3133 1.50532 15.558 0.738657C14.924 1.11466 14.2213 1.38799 13.4733 1.53532C12.8753 0.897324 12.0213 0.498657 11.0773 0.498657C8.958 0.498657 7.40067 2.47599 7.87933 4.52866C5.152 4.39199 2.73333 3.08532 1.114 1.09932C0.254 2.57466 0.668 4.50466 2.12933 5.48199C1.592 5.46466 1.08533 5.31732 0.643333 5.07132C0.607333 6.59199 1.69733 8.01466 3.276 8.33132C2.814 8.45666 2.308 8.48599 1.79333 8.38732C2.21067 9.69132 3.42267 10.64 4.86 10.6667C3.48 11.7487 1.74133 12.232 0 12.0267C1.45267 12.958 3.17867 13.5013 5.032 13.5013C11.1267 13.5013 14.57 8.35399 14.362 3.73732C15.0033 3.27399 15.56 2.69599 16 2.03799Z" fill="#E5E5E5"/>
</svg>
