<svg width="64" height="64" viewBox="0 0 64 64" fill="none" xmlns="http://www.w3.org/2000/svg">
<path d="M14.3335 32C14.3335 41.7502 22.2664 49.6674 32.0005 49.6674C41.7345 49.6674 49.6674 41.7343 49.6674 32C49.6674 22.2657 41.7345 14.3326 32.0005 14.3326C22.2664 14.3326 14.3335 22.2499 14.3335 32ZM32.0005 19.0731C39.1274 19.0731 44.927 24.8728 44.927 32C44.927 39.1272 39.1274 44.9269 32.0005 44.9269C24.8735 44.9269 19.0739 39.1272 19.0739 32C19.0739 24.8728 24.8735 19.0731 32.0005 19.0731Z" fill="url(#paint0_linear_4_449)"/>
<path d="M34.3708 9.37094V2.37032C34.3708 1.05859 33.3123 0 32.0006 0C30.6888 0 29.6303 1.05855 29.6303 2.37032V9.37094C29.6303 10.6827 30.6888 11.7413 32.0006 11.7413C33.3123 11.7413 34.3708 10.6827 34.3708 9.37094Z" fill="url(#paint1_linear_4_449)"/>
<path d="M54.6289 9.37094C53.7123 8.43843 52.1954 8.43843 51.2788 9.37094L46.3327 14.3172C45.4002 15.2497 45.4002 16.7508 46.3327 17.6674C46.791 18.1258 47.407 18.3626 48.0077 18.3626C48.6085 18.3626 49.2245 18.1258 49.6828 17.6674L54.6289 12.7212C55.5456 11.8045 55.5456 10.3033 54.6289 9.37094Z" fill="url(#paint2_linear_4_449)"/>
<path d="M61.6297 29.6295H54.6293C53.3176 29.6295 52.259 30.6881 52.259 31.9999C52.259 33.3116 53.3176 34.3702 54.6293 34.3702H61.6297C62.9414 34.3702 64 33.3116 64 31.9999C64 30.6881 62.9415 29.6295 61.6297 29.6295Z" fill="url(#paint3_linear_4_449)"/>
<path d="M46.3332 46.3331C45.4007 47.2657 45.4007 48.7667 46.3332 49.6834L51.2793 54.6296C51.7377 55.088 52.3537 55.3248 52.9544 55.3248C53.5551 55.3248 54.1712 55.088 54.6295 54.6296C55.562 53.6971 55.562 52.196 54.6295 51.2794L49.6833 46.3331C48.7508 45.4006 47.2498 45.4006 46.3332 46.3331Z" fill="url(#paint4_linear_4_449)"/>
<path d="M29.63 54.6291V61.6297C29.63 62.9414 30.6885 64 32.0003 64C33.312 64 34.3705 62.9414 34.3705 61.6297V54.6291C34.3705 53.3173 33.312 52.2587 32.0003 52.2587C30.6885 52.2587 29.63 53.3173 29.63 54.6291Z" fill="url(#paint5_linear_4_449)"/>
<path d="M14.3181 46.3331L9.37199 51.2794C8.4395 52.2119 8.4395 53.713 9.37199 54.6296C9.83031 55.088 10.4463 55.3248 11.0471 55.3248C11.6478 55.3248 12.2638 55.088 12.7221 54.6296L17.6683 49.6834C18.6007 48.7509 18.6007 47.2498 17.6683 46.3331C16.7516 45.4006 15.2505 45.4006 14.3181 46.3331Z" fill="url(#paint6_linear_4_449)"/>
<path d="M11.741 32C11.741 30.6883 10.6824 29.6297 9.3707 29.6297H2.37026C1.05856 29.6297 0 30.6882 0 32C0 33.3118 1.05852 34.3703 2.37026 34.3703H9.3707C10.6824 34.3703 11.741 33.3118 11.741 32Z" fill="url(#paint7_linear_4_449)"/>
<path d="M12.7215 9.37094C11.789 8.43843 10.288 8.43843 9.37138 9.37094C8.43889 10.3035 8.43889 11.8045 9.37138 12.7212L14.3175 17.6674C14.7758 18.1258 15.3919 18.3626 15.9926 18.3626C16.5933 18.3626 17.2093 18.1258 17.6676 17.6674C18.6001 16.7349 18.6001 15.2338 17.6676 14.3172L12.7215 9.37094Z" fill="url(#paint8_linear_4_449)"/>
<defs>
<linearGradient id="paint0_linear_4_449" x1="-3.70099" y1="24.263" x2="14.9554" y2="79.2969" gradientUnits="userSpaceOnUse">
<stop stop-color="#EE787B"/>
<stop offset="0.291667" stop-color="#E153F2"/>
<stop offset="0.671875" stop-color="#495BE0"/>
<stop offset="1" stop-color="#6A39F3"/>
</linearGradient>
<linearGradient id="paint1_linear_4_449" x1="-3.70099" y1="24.263" x2="14.9554" y2="79.2969" gradientUnits="userSpaceOnUse">
<stop stop-color="#EE787B"/>
<stop offset="0.291667" stop-color="#E153F2"/>
<stop offset="0.671875" stop-color="#495BE0"/>
<stop offset="1" stop-color="#6A39F3"/>
</linearGradient>
<linearGradient id="paint2_linear_4_449" x1="-3.70099" y1="24.263" x2="14.9554" y2="79.2969" gradientUnits="userSpaceOnUse">
<stop stop-color="#EE787B"/>
<stop offset="0.291667" stop-color="#E153F2"/>
<stop offset="0.671875" stop-color="#495BE0"/>
<stop offset="1" stop-color="#6A39F3"/>
</linearGradient>
<linearGradient id="paint3_linear_4_449" x1="-3.70099" y1="24.263" x2="14.9554" y2="79.2969" gradientUnits="userSpaceOnUse">
<stop stop-color="#EE787B"/>
<stop offset="0.291667" stop-color="#E153F2"/>
<stop offset="0.671875" stop-color="#495BE0"/>
<stop offset="1" stop-color="#6A39F3"/>
</linearGradient>
<linearGradient id="paint4_linear_4_449" x1="-3.70099" y1="24.263" x2="14.9554" y2="79.2969" gradientUnits="userSpaceOnUse">
<stop stop-color="#EE787B"/>
<stop offset="0.291667" stop-color="#E153F2"/>
<stop offset="0.671875" stop-color="#495BE0"/>
<stop offset="1" stop-color="#6A39F3"/>
</linearGradient>
<linearGradient id="paint5_linear_4_449" x1="-3.70099" y1="24.263" x2="14.9554" y2="79.2969" gradientUnits="userSpaceOnUse">
<stop stop-color="#EE787B"/>
<stop offset="0.291667" stop-color="#E153F2"/>
<stop offset="0.671875" stop-color="#495BE0"/>
<stop offset="1" stop-color="#6A39F3"/>
</linearGradient>
<linearGradient id="paint6_linear_4_449" x1="-3.70099" y1="24.263" x2="14.9554" y2="79.2969" gradientUnits="userSpaceOnUse">
<stop stop-color="#EE787B"/>
<stop offset="0.291667" stop-color="#E153F2"/>
<stop offset="0.671875" stop-color="#495BE0"/>
<stop offset="1" stop-color="#6A39F3"/>
</linearGradient>
<linearGradient id="paint7_linear_4_449" x1="-3.70099" y1="24.263" x2="14.9554" y2="79.2969" gradientUnits="userSpaceOnUse">
<stop stop-color="#EE787B"/>
<stop offset="0.291667" stop-color="#E153F2"/>
<stop offset="0.671875" stop-color="#495BE0"/>
<stop offset="1" stop-color="#6A39F3"/>
</linearGradient>
<linearGradient id="paint8_linear_4_449" x1="-3.70099" y1="24.263" x2="14.9554" y2="79.2969" gradientUnits="userSpaceOnUse">
<stop stop-color="#EE787B"/>
<stop offset="0.291667" stop-color="#E153F2"/>
<stop offset="0.671875" stop-color="#495BE0"/>
<stop offset="1" stop-color="#6A39F3"/>
</linearGradient>
</defs>
</svg>
