<svg width="43" height="42" viewBox="0 0 43 42" fill="none" xmlns="http://www.w3.org/2000/svg">
<path d="M21 0C18.2422 -3.2886e-08 15.5115 0.543181 12.9636 1.59853C10.4158 2.65388 8.10079 4.20073 6.15076 6.15076C4.20073 8.10079 2.65388 10.4158 1.59853 12.9636C0.543181 15.5115 -8.76595e-08 18.2422 0 21C8.76596e-08 23.7578 0.543181 26.4885 1.59853 29.0364C2.65388 31.5842 4.20073 33.8992 6.15076 35.8492C8.10079 37.7993 10.4158 39.3461 12.9636 40.4015C15.5115 41.4568 18.2422 42 21 42L21 21L21 0Z" fill="#0075FF"/>
<path d="M24.2 4.89486e-05L25.6 5.07523e-05C34.8784 6.2706e-05 42.4 7.52167 42.4 16.8V16.8L24.2 4.89486e-05Z" fill="#FE02B9"/>
<path d="M24.2 27.0148H42.4V42H24.2V27.0148Z" fill="#7E3BDC"/>
<path d="M42.4 27.0148C42.4 31.8831 38.3258 35.8296 33.3 35.8296C28.2742 35.8296 24.2 31.8831 24.2 27.0148C24.2 22.1465 28.2742 18.2 33.3 18.2C38.3258 18.2 42.4 22.1465 42.4 27.0148Z" fill="#7E3BDC"/>
</svg>
